<?xml version="1.0" encoding="UTF-8" standalone="no"?>
<!DOCTYPE svg PUBLIC "-//W3C//DTD SVG 1.1//EN" "http://www.w3.org/Graphics/SVG/1.1/DTD/svg11.dtd">
<svg width="100%" height="100%" viewBox="0 0 3840 3840" version="1.1" xmlns="http://www.w3.org/2000/svg" xmlns:xlink="http://www.w3.org/1999/xlink" xml:space="preserve" xmlns:serif="http://www.serif.com/" style="fill-rule:evenodd;clip-rule:evenodd;stroke-linejoin:round;stroke-miterlimit:2;">
    <g transform="matrix(1,0,0,1,0,-4040)">
        <g id="favourite_white-transparent_square" transform="matrix(1,0,0,3.2,0,4040)">
            <rect x="0" y="0" width="3840" height="1200" style="fill:none;"/>
            <g transform="matrix(14.1423,0,0,4.41946,-1026.13,-289.12)">
                <path d="M166.351,231.755C166.351,231.928 166.308,232.052 166.22,232.125C166.133,232.199 166.034,232.236 165.922,232.236L161.961,232.236C161.961,232.57 161.995,232.87 162.062,233.138C162.129,233.405 162.241,233.634 162.398,233.826C162.554,234.017 162.758,234.164 163.009,234.267C163.259,234.369 163.566,234.421 163.929,234.421C164.215,234.421 164.47,234.397 164.694,234.35C164.918,234.304 165.111,234.251 165.275,234.193C165.438,234.135 165.573,234.083 165.678,234.036C165.783,233.99 165.862,233.966 165.916,233.966C165.947,233.966 165.975,233.974 166,233.99C166.025,234.005 166.044,234.029 166.057,234.06C166.071,234.091 166.081,234.134 166.087,234.19C166.094,234.246 166.097,234.314 166.097,234.394C166.097,234.452 166.095,234.502 166.091,234.544C166.086,234.587 166.081,234.624 166.074,234.658C166.067,234.691 166.056,234.721 166.041,234.748C166.025,234.775 166.005,234.8 165.98,234.825C165.956,234.849 165.884,234.889 165.763,234.945C165.643,235.001 165.487,235.055 165.296,235.109C165.104,235.162 164.882,235.21 164.631,235.252C164.379,235.295 164.111,235.316 163.826,235.316C163.331,235.316 162.898,235.247 162.526,235.109C162.154,234.971 161.841,234.766 161.587,234.494C161.333,234.222 161.142,233.882 161.012,233.472C160.883,233.062 160.819,232.585 160.819,232.042C160.819,231.525 160.886,231.061 161.019,230.649C161.153,230.237 161.345,229.887 161.597,229.6C161.849,229.312 162.153,229.092 162.509,228.938C162.866,228.784 163.264,228.708 163.705,228.708C164.177,228.708 164.579,228.783 164.911,228.935C165.243,229.086 165.516,229.29 165.73,229.546C165.944,229.802 166.101,230.103 166.201,230.448C166.301,230.793 166.351,231.162 166.351,231.554L166.351,231.755ZM255.767,233.385C255.767,233.692 255.71,233.966 255.596,234.207C255.483,234.447 255.321,234.65 255.112,234.815C254.903,234.98 254.653,235.104 254.364,235.189C254.074,235.274 253.756,235.316 253.408,235.316C253.194,235.316 252.99,235.299 252.797,235.266C252.603,235.232 252.429,235.19 252.276,235.139C252.122,235.088 251.992,235.034 251.885,234.979C251.778,234.923 251.7,234.873 251.651,234.828C251.602,234.784 251.566,234.721 251.544,234.641C251.522,234.561 251.51,234.452 251.51,234.314C251.51,234.229 251.515,234.158 251.524,234.1C251.533,234.042 251.544,233.995 251.557,233.96C251.571,233.924 251.59,233.898 251.614,233.883C251.639,233.867 251.666,233.859 251.698,233.859C251.747,233.859 251.819,233.889 251.915,233.95C252.01,234.01 252.129,234.075 252.269,234.147C252.409,234.218 252.575,234.284 252.767,234.344C252.958,234.404 253.179,234.434 253.428,234.434C253.615,234.434 253.785,234.414 253.936,234.374C254.087,234.334 254.219,234.275 254.33,234.197C254.442,234.119 254.527,234.02 254.587,233.899C254.648,233.779 254.678,233.637 254.678,233.472C254.678,233.302 254.634,233.16 254.547,233.044C254.46,232.928 254.346,232.826 254.203,232.737C254.061,232.648 253.9,232.569 253.722,232.5C253.544,232.431 253.36,232.358 253.171,232.282C252.982,232.207 252.797,232.121 252.616,232.025C252.436,231.929 252.274,231.812 252.132,231.674C251.989,231.536 251.875,231.371 251.788,231.18C251.701,230.988 251.657,230.759 251.657,230.492C251.657,230.256 251.703,230.029 251.794,229.813C251.886,229.597 252.023,229.408 252.205,229.245C252.388,229.083 252.616,228.953 252.89,228.855C253.164,228.757 253.484,228.708 253.849,228.708C254.009,228.708 254.17,228.721 254.33,228.748C254.491,228.774 254.635,228.808 254.765,228.848C254.894,228.888 255.004,228.931 255.095,228.978C255.187,229.025 255.256,229.066 255.302,229.102C255.349,229.137 255.38,229.169 255.396,229.195C255.412,229.222 255.423,229.252 255.429,229.286C255.436,229.319 255.443,229.36 255.449,229.409C255.456,229.458 255.459,229.518 255.459,229.59C255.459,229.665 255.456,229.731 255.449,229.787C255.443,229.842 255.432,229.888 255.416,229.924C255.4,229.959 255.381,229.985 255.359,230.001C255.337,230.016 255.312,230.024 255.286,230.024C255.246,230.024 255.188,229.999 255.112,229.95C255.036,229.901 254.938,229.849 254.818,229.793C254.698,229.738 254.556,229.685 254.394,229.636C254.231,229.587 254.045,229.563 253.836,229.563C253.649,229.563 253.484,229.584 253.341,229.626C253.199,229.669 253.082,229.729 252.99,229.807C252.899,229.885 252.83,229.977 252.783,230.084C252.737,230.191 252.713,230.307 252.713,230.432C252.713,230.605 252.758,230.751 252.847,230.869C252.936,230.987 253.052,231.091 253.194,231.18C253.337,231.269 253.499,231.349 253.682,231.42C253.865,231.492 254.051,231.565 254.24,231.641C254.429,231.717 254.616,231.801 254.801,231.895C254.986,231.988 255.15,232.102 255.292,232.236C255.435,232.369 255.55,232.53 255.637,232.717C255.723,232.904 255.767,233.127 255.767,233.385ZM202.951,231.755C202.951,231.928 202.908,232.052 202.821,232.125C202.733,232.199 202.634,232.236 202.522,232.236L198.561,232.236C198.561,232.57 198.595,232.87 198.662,233.138C198.729,233.405 198.841,233.634 198.998,233.826C199.154,234.017 199.358,234.164 199.609,234.267C199.86,234.369 200.166,234.421 200.529,234.421C200.815,234.421 201.07,234.397 201.294,234.35C201.518,234.304 201.712,234.251 201.875,234.193C202.038,234.135 202.173,234.083 202.278,234.036C202.383,233.99 202.462,233.966 202.516,233.966C202.548,233.966 202.576,233.974 202.6,233.99C202.625,234.005 202.644,234.029 202.657,234.06C202.671,234.091 202.681,234.134 202.687,234.19C202.694,234.246 202.697,234.314 202.697,234.394C202.697,234.452 202.695,234.502 202.691,234.544C202.686,234.587 202.681,234.624 202.674,234.658C202.667,234.691 202.656,234.721 202.641,234.748C202.625,234.775 202.605,234.8 202.581,234.825C202.556,234.849 202.484,234.889 202.363,234.945C202.243,235.001 202.087,235.055 201.896,235.109C201.704,235.162 201.482,235.21 201.231,235.252C200.979,235.295 200.711,235.316 200.426,235.316C199.931,235.316 199.498,235.247 199.126,235.109C198.754,234.971 198.441,234.766 198.187,234.494C197.933,234.222 197.742,233.882 197.613,233.472C197.483,233.062 197.419,232.585 197.419,232.042C197.419,231.525 197.486,231.061 197.619,230.649C197.753,230.237 197.946,229.887 198.197,229.6C198.449,229.312 198.753,229.092 199.109,228.938C199.466,228.784 199.864,228.708 200.305,228.708C200.778,228.708 201.18,228.783 201.511,228.935C201.843,229.086 202.116,229.29 202.33,229.546C202.544,229.802 202.701,230.103 202.801,230.448C202.901,230.793 202.951,231.162 202.951,231.554L202.951,231.755ZM238.629,234.581C238.629,234.71 238.62,234.813 238.603,234.888C238.585,234.964 238.558,235.02 238.522,235.055C238.487,235.091 238.433,235.124 238.362,235.156C238.291,235.187 238.21,235.212 238.118,235.232C238.027,235.252 237.93,235.269 237.828,235.283C237.725,235.296 237.623,235.303 237.52,235.303C237.208,235.303 236.941,235.261 236.718,235.179C236.496,235.097 236.313,234.972 236.17,234.805C236.028,234.638 235.924,234.426 235.86,234.17C235.795,233.914 235.763,233.612 235.763,233.265L235.763,229.75L234.921,229.75C234.854,229.75 234.801,229.714 234.761,229.643C234.72,229.572 234.7,229.456 234.7,229.296C234.7,229.211 234.706,229.14 234.717,229.082C234.728,229.024 234.743,228.976 234.761,228.938C234.778,228.9 234.802,228.874 234.831,228.858C234.86,228.842 234.892,228.835 234.928,228.835L235.763,228.835L235.763,227.405C235.763,227.373 235.771,227.344 235.786,227.318C235.802,227.291 235.831,227.268 235.873,227.248C235.915,227.228 235.972,227.213 236.044,227.204C236.115,227.195 236.204,227.191 236.311,227.191C236.422,227.191 236.513,227.195 236.585,227.204C236.656,227.213 236.712,227.228 236.752,227.248C236.792,227.268 236.821,227.291 236.839,227.318C236.856,227.344 236.865,227.373 236.865,227.405L236.865,228.835L238.409,228.835C238.445,228.835 238.476,228.842 238.502,228.858C238.529,228.874 238.553,228.9 238.573,228.938C238.593,228.976 238.607,229.024 238.616,229.082C238.625,229.14 238.629,229.211 238.629,229.296C238.629,229.456 238.609,229.572 238.569,229.643C238.529,229.714 238.476,229.75 238.409,229.75L236.865,229.75L236.865,233.104C236.865,233.519 236.927,233.831 237.049,234.043C237.172,234.255 237.391,234.36 237.707,234.36C237.81,234.36 237.901,234.35 237.981,234.33C238.061,234.31 238.133,234.289 238.195,234.267C238.257,234.245 238.311,234.223 238.355,234.203C238.4,234.183 238.44,234.173 238.476,234.173C238.498,234.173 238.519,234.179 238.539,234.19C238.559,234.201 238.575,234.222 238.586,234.254C238.597,234.285 238.607,234.327 238.616,234.38C238.625,234.434 238.629,234.501 238.629,234.581ZM221.712,235.022C221.712,235.058 221.704,235.088 221.686,235.112C221.668,235.137 221.639,235.158 221.599,235.176C221.559,235.193 221.503,235.207 221.432,235.216C221.361,235.225 221.271,235.229 221.165,235.229C221.053,235.229 220.962,235.225 220.891,235.216C220.819,235.207 220.764,235.193 220.724,235.176C220.683,235.158 220.655,235.137 220.637,235.112C220.619,235.088 220.61,235.058 220.61,235.022L220.61,231.501C220.61,231.158 220.583,230.881 220.53,230.672C220.476,230.463 220.398,230.282 220.296,230.131C220.193,229.979 220.061,229.864 219.898,229.783C219.736,229.703 219.548,229.663 219.334,229.663C219.058,229.663 218.781,229.761 218.505,229.957C218.229,230.153 217.939,230.44 217.637,230.819L217.637,235.022C217.637,235.058 217.628,235.088 217.61,235.112C217.592,235.137 217.563,235.158 217.523,235.176C217.483,235.193 217.427,235.207 217.356,235.216C217.285,235.225 217.193,235.229 217.082,235.229C216.975,235.229 216.886,235.225 216.815,235.216C216.743,235.207 216.687,235.193 216.644,235.176C216.602,235.158 216.573,235.137 216.557,235.112C216.542,235.088 216.534,235.058 216.534,235.022L216.534,229.008C216.534,228.973 216.541,228.943 216.554,228.918C216.567,228.894 216.594,228.871 216.634,228.851C216.674,228.831 216.726,228.818 216.788,228.811C216.85,228.804 216.933,228.801 217.035,228.801C217.133,228.801 217.214,228.804 217.279,228.811C217.344,228.818 217.394,228.831 217.429,228.851C217.465,228.871 217.491,228.894 217.506,228.918C217.522,228.943 217.53,228.973 217.53,229.008L217.53,229.803C217.868,229.425 218.206,229.147 218.542,228.972C218.878,228.796 219.218,228.708 219.561,228.708C219.962,228.708 220.299,228.776 220.573,228.911C220.847,229.047 221.069,229.229 221.238,229.456C221.407,229.683 221.529,229.949 221.602,230.254C221.676,230.56 221.712,230.926 221.712,231.354L221.712,235.022ZM184.798,228.995L184.785,229.115L184.745,229.276L182.694,234.989C182.676,235.038 182.652,235.078 182.623,235.109C182.594,235.14 182.551,235.165 182.493,235.182C182.435,235.2 182.362,235.212 182.273,235.219C182.183,235.226 182.072,235.229 181.938,235.229C181.805,235.229 181.693,235.225 181.604,235.216C181.515,235.207 181.443,235.193 181.387,235.176C181.332,235.158 181.288,235.133 181.257,235.102C181.226,235.071 181.201,235.033 181.183,234.989L179.139,229.276C179.121,229.222 179.106,229.175 179.095,229.135C179.084,229.095 179.078,229.065 179.075,229.045C179.073,229.025 179.072,229.008 179.072,228.995C179.072,228.959 179.081,228.928 179.099,228.901C179.117,228.875 179.147,228.853 179.189,228.838C179.231,228.822 179.287,228.812 179.356,228.808C179.425,228.803 179.511,228.801 179.613,228.801C179.742,228.801 179.846,228.804 179.924,228.811C180.002,228.818 180.062,228.83 180.104,228.848C180.147,228.866 180.178,228.888 180.198,228.915C180.218,228.941 180.237,228.975 180.255,229.015L181.952,233.973L181.979,234.053L181.999,233.973L183.676,229.015C183.685,228.975 183.7,228.941 183.723,228.915C183.745,228.888 183.777,228.866 183.819,228.848C183.862,228.83 183.92,228.818 183.993,228.811C184.067,228.804 184.164,228.801 184.284,228.801C184.386,228.801 184.471,228.803 184.538,228.808C184.605,228.812 184.657,228.823 184.695,228.841C184.733,228.859 184.759,228.88 184.775,228.905C184.791,228.929 184.798,228.959 184.798,228.995ZM165.242,231.427C165.255,230.848 165.127,230.394 164.855,230.064C164.584,229.734 164.182,229.57 163.649,229.57C163.375,229.57 163.136,229.621 162.929,229.723C162.723,229.826 162.551,229.962 162.412,230.131C162.273,230.3 162.165,230.497 162.089,230.722C162.013,230.947 161.97,231.182 161.961,231.427L165.242,231.427ZM201.842,231.427C201.856,230.848 201.727,230.394 201.456,230.064C201.184,229.734 200.782,229.57 200.249,229.57C199.975,229.57 199.736,229.621 199.53,229.723C199.323,229.826 199.151,229.962 199.012,230.131C198.873,230.3 198.765,230.497 198.689,230.722C198.613,230.947 198.57,231.182 198.561,231.427L201.842,231.427Z" style="fill:white;fill-rule:nonzero;"/>
                <path d="M105.875,167.335C100.656,169.069 95.865,175.125 90.871,186.299C89.321,189.768 89.239,189.892 88.145,190.431C86.256,191.362 85.386,193.903 86.481,195.294L86.961,195.905L85.716,199.64C80.617,214.935 77.87,235 80.875,235C81.711,235 81.92,234.598 82.371,232.123C83.64,225.159 87.911,212.135 92.918,199.963L94.321,196.551L95.848,196.256C99.276,195.594 105.65,193.454 108.454,192.023C109.018,191.736 109.541,191.5 109.616,191.5C109.69,191.5 109.039,192.401 108.167,193.503C101.372,202.097 99.088,211.088 102.766,214.766C106.032,218.032 111.999,214.12 120.008,203.463C122.078,200.707 122.083,200.703 121.62,202.002C118.35,211.176 119.684,217.75 124.816,217.75C127.06,217.75 130.376,214.725 135.468,208.034L137.25,205.693L137.253,208.659C137.266,221.844 144.861,218.453 158.047,199.375C164.91,189.445 168.044,183.832 167.257,182.883C166.405,181.857 165.909,182.316 162.602,187.188C154.032,199.812 147.65,207.884 145.26,209.12L144.5,209.513L144.5,207.849C144.5,205.914 145.36,201.879 146.804,197.04C149.047,189.524 149.065,189.237 147.427,186.86C144.577,182.725 141.049,184.52 140.151,190.563C138.972,198.505 138.339,200.096 134.142,205.69C131.044,209.819 128.431,212.283 126.525,212.872C124.79,213.408 128.484,201.84 131.995,195.741C134.426,191.518 134.276,190.159 131.196,188.499C130.124,187.922 129.287,187.256 128.882,186.659C125.513,181.695 120.264,182.012 113.733,187.574C111.825,189.199 111.571,189.34 110.639,189.282C110.081,189.248 109.062,189.348 108.375,189.504C105.859,190.075 102.806,190.492 99.935,190.657L96.994,190.825L97.401,189.85C99.449,184.944 105.07,175.449 107.036,173.575C108.569,172.114 111.254,171.508 112.39,172.367C113.511,173.215 114.667,172.582 114.381,171.277C113.748,168.394 109.13,166.254 105.875,167.335ZM244.419,182.613C241.849,183.529 237.186,187.78 233.851,192.245C231.833,194.948 231.743,194.998 232.848,192.803C235.383,187.769 235.542,186.257 233.711,184.592C231.535,182.612 228.724,182.837 227.898,185.057C227.68,185.644 226.899,187.756 226.163,189.75C221.217,203.138 215.436,212.5 212.114,212.5C209.577,212.5 213.326,200.321 218.002,193.375C220.615,189.494 220.796,187.684 218.746,185.93C215.367,183.038 213.099,184.573 209.17,192.41C204.915,200.898 198.688,209.523 195.842,210.874C191.842,212.772 193.384,205.04 198.884,195.625C202.715,189.065 202.837,188.328 200.459,186.09C198.687,184.423 197.551,184.218 195.859,185.261C194.995,185.794 195.083,185.641 192.912,190.375C192.03,192.3 190.795,194.953 190.168,196.27C185.898,205.245 185.049,210.557 187.345,213.94C190.634,218.789 197.447,215.535 204.233,205.875C204.95,204.854 205.244,204.574 205.153,205C203.819,211.257 204.382,214.811 206.993,216.62C209.522,218.373 211.723,217.585 215.802,213.467C217.274,211.98 218.418,210.924 218.343,211.119C217.878,212.329 220.009,216.01 221.372,216.352C222.929,216.743 223.923,215.556 225.452,211.478C229.471,200.759 236.794,191.694 243.75,188.828C246.154,187.838 246.972,188.127 247.236,190.058C247.729,193.653 249.924,190.441 249.695,186.459C249.495,182.963 247.504,181.513 244.419,182.613ZM277.375,167.736C276.403,168.134 275.987,168.959 274.399,173.643C273.516,176.245 272.716,178.572 272.62,178.813C272.482,179.161 272.143,179.25 270.957,179.25C268.5,179.25 267.75,180.071 267.75,182.757C267.75,184.296 268.384,185.42 269.455,185.777C269.692,185.856 269.415,186.824 268.423,189.38C267.677,191.302 266.582,194.281 265.989,196C264.813,199.408 264.359,200.196 261.529,203.75C257.999,208.183 254.005,211.75 252.571,211.75C250.149,211.75 253.742,200.309 258.371,193.28C260.899,189.441 260.835,187.609 258.118,186.07C254.962,184.283 252.726,186.164 249.743,193.117C239.74,216.429 247.553,225.323 261.993,207.063C263.028,205.755 263.002,205.723 262.744,208C262.023,214.368 265.232,218.168 269.63,216.155C272.112,215.018 275.198,212.374 278.645,208.429L280.127,206.733L280.128,208.929C280.13,215.078 286.47,218.735 292.627,216.138C297.512,214.077 303.765,209.147 308.777,203.404C314.241,197.144 313.117,195.237 307.372,201.019C292.822,215.662 283.083,216.942 289.345,203.388C289.825,202.35 290.267,201.5 290.328,201.5C290.389,201.5 290.843,201.669 291.336,201.875C297.338,204.383 310.487,192.284 307.673,186.843C306.166,183.928 301.577,181.929 298.479,182.837C293.863,184.191 286.903,191.332 283.271,198.441C281.06,202.768 272.337,211.486 270.205,211.498C267.502,211.513 270.154,202.078 276.956,187.481L277.955,185.338L281.387,184.515C289.605,182.546 294.415,180.372 293.844,178.885C293.65,178.379 292.767,178.423 289.125,179.116C287.09,179.503 280.5,179.941 280.5,179.689C280.5,179.612 280.897,178.521 281.383,177.263C283.26,172.404 283.323,171.26 281.813,169.495C280.464,167.919 278.668,167.207 277.375,167.736ZM176.379,183.877C167.983,187.328 157.882,202.84 159.242,210.194C160.61,217.596 167.15,218.798 174.745,213.042C186.978,203.773 192.454,187.824 184.211,185.475C183.614,185.304 182.9,184.966 182.625,184.723C180.944,183.237 178.682,182.93 176.379,183.877ZM316.327,207.006C312.303,209.049 310.898,214.607 314.008,216.18C317.462,217.928 322.738,212.086 320.899,208.55C319.928,206.684 318.146,206.082 316.327,207.006ZM183.184,189.155C187.408,191.818 180.444,205.714 172.14,211.192C162.516,217.54 167.511,199.354 177.637,191.175C180.738,188.672 181.803,188.284 183.184,189.155ZM124.702,190.416C125.003,193.522 111.118,210.749 108.313,210.75C106.006,210.75 110.753,200.845 115.919,194.876C119.893,190.285 124.464,187.964 124.702,190.416ZM331.125,167.968C328.41,169.654 324.591,178.761 321.466,191C319.2,199.879 320.053,203.349 322.868,196.7C325.35,190.834 330.666,181.224 333.631,177.241C337.056,172.642 337.605,171.12 336.494,169.298C335.528,167.714 332.673,167.006 331.125,167.968ZM302.444,189.139C304.606,190.654 298.057,198.025 293.327,199.4C290.95,200.091 291.12,199.619 294.988,194.796C299.002,189.791 301.101,188.198 302.444,189.139ZM259.805,172.036L258.234,173.563L255.992,173.388C253.227,173.172 253.092,173.345 254.354,175.498C255.453,177.373 255.479,178.197 254.5,180.084C253.304,182.39 253.448,182.646 255.644,182.122C258.152,181.523 258.364,181.578 260.161,183.304C262.018,185.087 262.106,185.056 262.375,182.526C262.608,180.326 263.015,179.725 265.039,178.587C267.166,177.39 267.164,177.215 265.006,176.128C263.007,175.122 262.601,174.618 262.381,172.875C262.012,169.957 261.96,169.94 259.805,172.036Z" style="fill:white;"/>
            </g>
        </g>
    </g>
</svg>
